<svg width="24" height="25" viewBox="0 0 24 25" fill="none" xmlns="http://www.w3.org/2000/svg">
<path d="M7.5 5.12638L12 7.72638L16.5 5.12638M7.5 20.7064V15.5164L3 12.9164M21 12.9164L16.5 15.5164V20.7064M3.27 7.87638L12 12.9264L20.73 7.87638M12 22.9964V12.9164M21 16.9164V8.91638C20.9996 8.56565 20.9071 8.22119 20.7315 7.91754C20.556 7.61389 20.3037 7.36174 20 7.18638L13 3.18638C12.696 3.01084 12.3511 2.91843 12 2.91843C11.6489 2.91843 11.304 3.01084 11 3.18638L4 7.18638C3.69626 7.36174 3.44398 7.61389 3.26846 7.91754C3.09294 8.22119 3.00036 8.56565 3 8.91638V16.9164C3.00036 17.2671 3.09294 17.6116 3.26846 17.9152C3.44398 18.2189 3.69626 18.471 4 18.6464L11 22.6464C11.304 22.8219 11.6489 22.9143 12 22.9143C12.3511 22.9143 12.696 22.8219 13 22.6464L20 18.6464C20.3037 18.471 20.556 18.2189 20.7315 17.9152C20.9071 17.6116 20.9996 17.2671 21 16.9164Z" stroke="#EEEEEE" stroke-linecap="round" stroke-linejoin="round"/>
</svg>
