<svg width="49" height="48" viewBox="0 0 49 48" fill="none" xmlns="http://www.w3.org/2000/svg">
<path d="M15.5 8.41999L24.5 13.62L33.5 8.41999M15.5 39.58V29.2L6.5 24M42.5 24L33.5 29.2V39.58M7.04 13.92L24.5 24.02L41.96 13.92M24.5 44.16V24M42.5 32V16C42.4993 15.2985 42.3141 14.6096 41.9631 14.0023C41.612 13.395 41.1075 12.8907 40.5 12.54L26.5 4.53999C25.8919 4.18891 25.2021 4.00409 24.5 4.00409C23.7979 4.00409 23.1081 4.18891 22.5 4.53999L8.5 12.54C7.89253 12.8907 7.38796 13.395 7.03692 14.0023C6.68589 14.6096 6.50072 15.2985 6.5 16V32C6.50072 32.7014 6.68589 33.3904 7.03692 33.9977C7.38796 34.605 7.89253 35.1093 8.5 35.46L22.5 43.46C23.1081 43.8111 23.7979 43.9959 24.5 43.9959C25.2021 43.9959 25.8919 43.8111 26.5 43.46L40.5 35.46C41.1075 35.1093 41.612 34.605 41.9631 33.9977C42.3141 33.3904 42.4993 32.7014 42.5 32Z" stroke="#EEEEEE" stroke-linecap="round" stroke-linejoin="round"/>
</svg>
