<svg width="24" height="25" viewBox="0 0 24 25" fill="none" xmlns="http://www.w3.org/2000/svg">
<g clip-path="url(#clip0_532_262)">
<path d="M9 1.91638V4.91638M15 1.91638V4.91638M9 20.9164V23.9164M15 20.9164V23.9164M20 9.91638H23M20 14.9164H23M1 9.91638H4M1 14.9164H4M6 4.91638H18C19.1046 4.91638 20 5.81181 20 6.91638V18.9164C20 20.021 19.1046 20.9164 18 20.9164H6C4.89543 20.9164 4 20.021 4 18.9164V6.91638C4 5.81181 4.89543 4.91638 6 4.91638ZM9 9.91638H15V15.9164H9V9.91638Z" stroke="#EEEEEE" stroke-linecap="round" stroke-linejoin="round"/>
</g>
<defs>
<clipPath id="clip0_532_262">
<rect width="24" height="24" fill="white" transform="translate(0 0.916382)"/>
</clipPath>
</defs>
</svg>
