<svg width="49" height="48" viewBox="0 0 49 48" fill="none" xmlns="http://www.w3.org/2000/svg">
<path d="M24.5 4H17.5C15.6435 4 13.863 4.7375 12.5503 6.05025C11.2375 7.36301 10.5 9.14348 10.5 11C10.5 12.8565 11.2375 14.637 12.5503 15.9497C13.863 17.2625 15.6435 18 17.5 18M24.5 4V18M24.5 4H31.5C32.4193 4 33.3295 4.18106 34.1788 4.53284C35.0281 4.88463 35.7997 5.40024 36.4497 6.05025C37.0998 6.70026 37.6154 7.47194 37.9672 8.32122C38.3189 9.17049 38.5 10.0807 38.5 11C38.5 11.9193 38.3189 12.8295 37.9672 13.6788C37.6154 14.5281 37.0998 15.2997 36.4497 15.9497C35.7997 16.5998 35.0281 17.1154 34.1788 17.4672C33.3295 17.8189 32.4193 18 31.5 18M24.5 18H17.5M24.5 18H31.5M24.5 18V32M17.5 18C15.6435 18 13.863 18.7375 12.5503 20.0503C11.2375 21.363 10.5 23.1435 10.5 25C10.5 26.8565 11.2375 28.637 12.5503 29.9497C13.863 31.2625 15.6435 32 17.5 32M31.5 18C30.5807 18 29.6705 18.1811 28.8212 18.5328C27.9719 18.8846 27.2003 19.4002 26.5503 20.0503C25.9002 20.7003 25.3846 21.4719 25.0328 22.3212C24.6811 23.1705 24.5 24.0807 24.5 25C24.5 25.9193 24.6811 26.8295 25.0328 27.6788C25.3846 28.5281 25.9002 29.2997 26.5503 29.9497C27.2003 30.5998 27.9719 31.1154 28.8212 31.4672C29.6705 31.8189 30.5807 32 31.5 32C32.4193 32 33.3295 31.8189 34.1788 31.4672C35.0281 31.1154 35.7997 30.5998 36.4497 29.9497C37.0998 29.2997 37.6154 28.5281 37.9672 27.6788C38.3189 26.8295 38.5 25.9193 38.5 25C38.5 24.0807 38.3189 23.1705 37.9672 22.3212C37.6154 21.4719 37.0998 20.7003 36.4497 20.0503C35.7997 19.4002 35.0281 18.8846 34.1788 18.5328C33.3295 18.1811 32.4193 18 31.5 18ZM17.5 32C15.6435 32 13.863 32.7375 12.5503 34.0503C11.2375 35.363 10.5 37.1435 10.5 39C10.5 40.8565 11.2375 42.637 12.5503 43.9497C13.863 45.2625 15.6435 46 17.5 46C19.3565 46 21.137 45.2625 22.4497 43.9497C23.7625 42.637 24.5 40.8565 24.5 39V32M17.5 32H24.5" stroke="#EEEEEE" stroke-linecap="round" stroke-linejoin="round"/>
</svg>
