<svg width="459" height="169" viewBox="0 0 459 169" fill="none" xmlns="http://www.w3.org/2000/svg">
<path d="M49.144 4.37419V71.9582H47.224V38.0702H5.08V71.9582H3.16V4.37419H5.08V36.3422H47.224V4.37419H49.144ZM88.1575 70.9022C93.9815 70.9022 98.8775 69.4302 102.846 66.4862C106.814 63.5422 109.214 59.5102 110.046 54.3902H111.966C111.07 59.8302 108.51 64.2462 104.286 67.6382C100.126 70.9662 94.7495 72.6302 88.1575 72.6302C83.3575 72.6302 79.0695 71.5742 75.2935 69.4622C71.5175 67.3502 68.5415 64.2782 66.3655 60.2462C64.2535 56.2142 63.1975 51.4782 63.1975 46.0382C63.1975 40.5982 64.2535 35.8622 66.3655 31.8302C68.5415 27.7982 71.5175 24.7262 75.2935 22.6142C79.0695 20.5022 83.3575 19.4462 88.1575 19.4462C93.2135 19.4462 97.5335 20.5342 101.118 22.7102C104.702 24.8222 107.39 27.5742 109.182 30.9662C111.038 34.3582 111.966 37.9422 111.966 41.7182C111.966 44.0222 111.934 45.7502 111.87 46.9022H65.1175C65.1815 52.2142 66.2695 56.6622 68.3815 60.2462C70.5575 63.8302 73.3735 66.5182 76.8295 68.3102C80.2855 70.0382 84.0615 70.9022 88.1575 70.9022ZM88.1575 21.1742C84.0615 21.1742 80.2855 22.0702 76.8295 23.8622C73.3735 25.5902 70.5575 28.2462 68.3815 31.8302C66.2695 35.4142 65.1815 39.8622 65.1175 45.1742H110.238C110.558 39.8622 109.694 35.4142 107.646 31.8302C105.662 28.2462 102.91 25.5902 99.3895 23.8622C95.9335 22.0702 92.1895 21.1742 88.1575 21.1742ZM164.087 20.1182L134.519 96.3422H132.503L141.911 72.2462L119.639 20.1182H121.559L142.871 69.9422L162.167 20.1182H164.087ZM237.044 4.37419V6.10219H217.364V71.9582H215.444V6.10219H195.764V4.37419H237.044ZM269.37 18.9662C275.45 18.9662 280.442 20.8542 284.346 24.6302C288.25 28.4062 290.202 34.1022 290.202 41.7182V71.9582H288.378V41.5262C288.378 34.7422 286.682 29.5902 283.29 26.0702C279.898 22.4862 275.258 20.6942 269.37 20.6942C263.226 20.6942 258.298 22.7102 254.586 26.7422C250.874 30.7102 249.018 36.5982 249.018 44.4062V71.9582H247.098V0.91819H249.018V33.7502C250.234 28.9502 252.666 25.3022 256.314 22.8062C259.962 20.2462 264.314 18.9662 269.37 18.9662ZM328.626 70.9022C334.45 70.9022 339.346 69.4302 343.314 66.4862C347.282 63.5422 349.682 59.5102 350.514 54.3902H352.434C351.538 59.8302 348.978 64.2462 344.754 67.6382C340.594 70.9662 335.218 72.6302 328.626 72.6302C323.826 72.6302 319.538 71.5742 315.762 69.4622C311.986 67.3502 309.01 64.2782 306.834 60.2462C304.722 56.2142 303.666 51.4782 303.666 46.0382C303.666 40.5982 304.722 35.8622 306.834 31.8302C309.01 27.7982 311.986 24.7262 315.762 22.6142C319.538 20.5022 323.826 19.4462 328.626 19.4462C333.682 19.4462 338.002 20.5342 341.586 22.7102C345.17 24.8222 347.858 27.5742 349.65 30.9662C351.506 34.3582 352.434 37.9422 352.434 41.7182C352.434 44.0222 352.402 45.7502 352.338 46.9022H305.586C305.65 52.2142 306.738 56.6622 308.85 60.2462C311.026 63.8302 313.842 66.5182 317.298 68.3102C320.754 70.0382 324.53 70.9022 328.626 70.9022ZM328.626 21.1742C324.53 21.1742 320.754 22.0702 317.298 23.8622C313.842 25.5902 311.026 28.2462 308.85 31.8302C306.738 35.4142 305.65 39.8622 305.586 45.1742H350.706C351.026 39.8622 350.162 35.4142 348.114 31.8302C346.13 28.2462 343.378 25.5902 339.858 23.8622C336.402 22.0702 332.658 21.1742 328.626 21.1742ZM368.268 32.6942C370.316 23.5422 377.132 18.9662 388.716 18.9662V21.0782H387.852C382.412 21.0782 377.772 22.6782 373.932 25.8782C370.156 29.0142 368.268 34.1022 368.268 41.1422V71.9582H366.348V20.1182H368.268V32.6942ZM421.345 70.9022C427.169 70.9022 432.065 69.4302 436.033 66.4862C440.001 63.5422 442.401 59.5102 443.233 54.3902H445.153C444.257 59.8302 441.697 64.2462 437.473 67.6382C433.313 70.9662 427.937 72.6302 421.345 72.6302C416.545 72.6302 412.257 71.5742 408.481 69.4622C404.705 67.3502 401.729 64.2782 399.553 60.2462C397.441 56.2142 396.385 51.4782 396.385 46.0382C396.385 40.5982 397.441 35.8622 399.553 31.8302C401.729 27.7982 404.705 24.7262 408.481 22.6142C412.257 20.5022 416.545 19.4462 421.345 19.4462C426.401 19.4462 430.721 20.5342 434.305 22.7102C437.889 24.8222 440.577 27.5742 442.369 30.9662C444.225 34.3582 445.153 37.9422 445.153 41.7182C445.153 44.0222 445.121 45.7502 445.057 46.9022H398.305C398.369 52.2142 399.457 56.6622 401.569 60.2462C403.745 63.8302 406.561 66.5182 410.017 68.3102C413.473 70.0382 417.249 70.9022 421.345 70.9022ZM421.345 21.1742C417.249 21.1742 413.473 22.0702 410.017 23.8622C406.561 25.5902 403.745 28.2462 401.569 31.8302C399.457 35.4142 398.369 39.8622 398.305 45.1742H443.425C443.745 39.8622 442.881 35.4142 440.833 31.8302C438.849 28.2462 436.097 25.5902 432.577 23.8622C429.121 22.0702 425.377 21.1742 421.345 21.1742ZM458.586 63.0302L450.522 86.8382H448.698L456.09 63.0302H458.586Z" fill="#EEEEEE"/>
<path d="M17.368 100.566V167.958H0.952V100.566H17.368ZM33.0085 100.566H49.8085L39.0565 126.294H28.0165L33.0085 100.566ZM127.804 113.814C134.46 113.814 139.74 115.83 143.644 119.862C147.612 123.894 149.596 129.494 149.596 136.662V167.958H133.276V138.87C133.276 135.414 132.348 132.758 130.492 130.902C128.7 128.982 126.204 128.022 123.004 128.022C119.804 128.022 117.276 128.982 115.42 130.902C113.628 132.758 112.732 135.414 112.732 138.87V167.958H96.412V138.87C96.412 135.414 95.484 132.758 93.628 130.902C91.836 128.982 89.34 128.022 86.14 128.022C82.94 128.022 80.412 128.982 78.556 130.902C76.764 132.758 75.868 135.414 75.868 138.87V167.958H59.452V114.39H75.868V121.11C77.532 118.87 79.708 117.11 82.396 115.83C85.084 114.486 88.124 113.814 91.516 113.814C95.548 113.814 99.132 114.678 102.268 116.406C105.468 118.134 107.964 120.598 109.756 123.798C111.612 120.854 114.14 118.454 117.34 116.598C120.54 114.742 124.028 113.814 127.804 113.814ZM215.789 167.958L201.773 142.518H197.837V167.958H181.421V100.566H208.973C214.285 100.566 218.797 101.494 222.509 103.35C226.285 105.206 229.101 107.766 230.957 111.03C232.813 114.23 233.741 117.814 233.741 121.782C233.741 126.262 232.461 130.262 229.901 133.782C227.405 137.302 223.693 139.798 218.765 141.27L234.317 167.958H215.789ZM197.837 130.902H208.013C211.021 130.902 213.261 130.166 214.733 128.694C216.269 127.222 217.037 125.142 217.037 122.454C217.037 119.894 216.269 117.878 214.733 116.406C213.261 114.934 211.021 114.198 208.013 114.198H197.837V130.902ZM240.782 141.078C240.782 135.574 241.806 130.742 243.854 126.582C245.966 122.422 248.814 119.222 252.398 116.982C255.982 114.742 259.982 113.622 264.398 113.622C268.174 113.622 271.47 114.39 274.286 115.926C277.166 117.462 279.374 119.478 280.91 121.974V114.39H297.326V167.958H280.91V160.374C279.31 162.87 277.07 164.886 274.19 166.422C271.374 167.958 268.078 168.726 264.302 168.726C259.95 168.726 255.982 167.606 252.398 165.366C248.814 163.062 245.966 159.83 243.854 155.67C241.806 151.446 240.782 146.582 240.782 141.078ZM280.91 141.174C280.91 137.078 279.758 133.846 277.454 131.478C275.214 129.11 272.462 127.926 269.198 127.926C265.934 127.926 263.15 129.11 260.846 131.478C258.606 133.782 257.486 136.982 257.486 141.078C257.486 145.174 258.606 148.438 260.846 150.87C263.15 153.238 265.934 154.422 269.198 154.422C272.462 154.422 275.214 153.238 277.454 150.87C279.758 148.502 280.91 145.27 280.91 141.174ZM377.554 113.814C384.21 113.814 389.49 115.83 393.394 119.862C397.362 123.894 399.346 129.494 399.346 136.662V167.958H383.026V138.87C383.026 135.414 382.098 132.758 380.242 130.902C378.45 128.982 375.954 128.022 372.754 128.022C369.554 128.022 367.026 128.982 365.17 130.902C363.378 132.758 362.482 135.414 362.482 138.87V167.958H346.162V138.87C346.162 135.414 345.234 132.758 343.378 130.902C341.586 128.982 339.09 128.022 335.89 128.022C332.69 128.022 330.162 128.982 328.306 130.902C326.514 132.758 325.618 135.414 325.618 138.87V167.958H309.202V114.39H325.618V121.11C327.282 118.87 329.458 117.11 332.146 115.83C334.834 114.486 337.874 113.814 341.266 113.814C345.298 113.814 348.882 114.678 352.018 116.406C355.218 118.134 357.714 120.598 359.506 123.798C361.362 120.854 363.89 118.454 367.09 116.598C370.29 114.742 373.778 113.814 377.554 113.814ZM419.083 108.822C416.203 108.822 413.835 107.99 411.979 106.326C410.187 104.598 409.291 102.486 409.291 99.9902C409.291 97.4302 410.187 95.3182 411.979 93.6542C413.835 91.9262 416.203 91.0622 419.083 91.0622C421.899 91.0622 424.203 91.9262 425.995 93.6542C427.851 95.3182 428.779 97.4302 428.779 99.9902C428.779 102.486 427.851 104.598 425.995 106.326C424.203 107.99 421.899 108.822 419.083 108.822ZM427.243 114.39V167.958H410.827V114.39H427.243ZM455.556 96.9182V167.958H439.14V96.9182H455.556Z" fill="#00ADB5"/>
</svg>
